<svg xmlns="http://www.w3.org/2000/svg" width="200" height="47" fill="none" viewBox="0 0 200 47">
    <g clip-path="url(#prefix__clip0)">
        <path fill="#fff" d="M168.635 13.215c-1.025-1.428-2.377-2.59-3.943-3.39-1.565-.799-3.299-1.212-5.057-1.205-3.069 0-6.011 1.219-8.181 3.389-2.17 2.17-3.389 5.112-3.389 8.181 0 3.069 1.219 6.011 3.389 8.181 2.17 2.17 5.112 3.389 8.181 3.389 1.758.007 3.492-.406 5.057-1.206 1.566-.799 2.918-1.961 3.943-3.389v4.4h2.67V8.815h-2.67v4.4zm0 7c.064 1.22-.12 2.44-.543 3.587-.423 1.146-1.074 2.195-1.915 3.081-.841.887-1.854 1.593-2.976 2.075-1.123.482-2.332.731-3.553.731-1.222 0-2.431-.249-3.554-.731-1.122-.482-2.135-1.188-2.976-2.075-.841-.886-1.492-1.935-1.915-3.081-.423-1.146-.607-2.367-.543-3.587-.064-1.22.12-2.44.543-3.587.423-1.146 1.074-2.195 1.915-3.081.841-.887 1.854-1.593 2.976-2.075 1.123-.482 2.332-.731 3.554-.731 1.221 0 2.43.249 3.553.731 1.122.482 2.135 1.188 2.976 2.075.841.886 1.492 1.935 1.915 3.081.423 1.146.607 2.367.543 3.587zM94.29 11.03c1.302.032 2.582.349 3.749.93 1.166.58 2.191 1.41 3.001 2.43l.165.205 2.065-1.5-.18-.23c-1.036-1.316-2.359-2.38-3.867-3.11-1.508-.729-3.163-1.105-4.838-1.1H94.1c-6.295 0-11.225 5.08-11.225 11.57s4.93 11.57 11.225 11.57h.285c1.652.003 3.284-.365 4.775-1.076 1.491-.711 2.803-1.748 3.84-3.034l.175-.215-1.955-1.635-.175.225c-.82 1.043-1.863 1.888-3.053 2.475-1.19.587-2.496.9-3.822.915-4.85-.105-8.795-4.235-8.795-9.21-.022-2.398.901-4.71 2.57-6.432 1.668-1.724 3.947-2.722 6.345-2.778zM74.87 13.265c-1.025-1.428-2.377-2.59-3.943-3.39-1.565-.799-3.3-1.212-5.057-1.205-3.069 0-6.011 1.219-8.181 3.389-2.17 2.17-3.389 5.113-3.389 8.181 0 3.069 1.219 6.011 3.389 8.181 2.17 2.17 5.112 3.389 8.181 3.389 1.758.007 3.492-.406 5.057-1.206 1.566-.799 2.918-1.961 3.943-3.389v4.395h2.67V8.865h-2.67v4.4zm0 6.975c.064 1.22-.12 2.44-.543 3.587-.423 1.146-1.074 2.195-1.915 3.081-.84.887-1.854 1.593-2.976 2.075-1.123.482-2.332.731-3.554.731-1.221 0-2.43-.249-3.553-.731-1.123-.482-2.135-1.188-2.976-2.075-.84-.886-1.492-1.935-1.915-3.081-.423-1.146-.607-2.367-.543-3.587 0-1.182.233-2.352.685-3.444.452-1.092 1.115-2.084 1.951-2.92.836-.836 1.828-1.499 2.92-1.95 1.092-.453 2.262-.686 3.444-.686s2.352.233 3.444.685c1.092.452 2.084 1.115 2.92 1.951.836.836 1.499 1.828 1.95 2.92.453 1.092.686 2.262.686 3.444h-.025zM39.785 8.47h-2c-4.57 0-11 3.5-11 11.365V46.54h2.67v-26.5c.042-1.77.606-3.489 1.62-4.94 1.015-1.452 2.434-2.572 4.082-3.22 1.648-.648 3.45-.796 5.182-.425 1.731.371 3.315 1.245 4.552 2.512 1.237 1.266 2.073 2.87 2.404 4.61.33 1.74.14 3.538-.548 5.17-.687 1.632-1.84 3.025-3.315 4.005-1.475.98-3.206 1.503-4.977 1.503H32.78v2.34h5.675c2.949-.028 5.777-1.175 7.911-3.21 2.135-2.034 3.416-4.804 3.585-7.748.17-2.944-.787-5.842-2.674-8.108-1.888-2.265-4.566-3.729-7.492-4.094v.035zM136.12 2.5h-2.67v23.34c0 .19 0 .385.035.585.22 1.478.95 2.832 2.063 3.83 1.113.996 2.539 1.573 4.032 1.63 1.675 0 4.07-.685 5.22-1.95l.135-.155-1.2-2.03-.255.28c-.423.44-.93.79-1.493 1.029-.562.238-1.166.359-1.777.356-2.275 0-4.035-1.5-4.09-3.5v-14.72h8.17v-2.37h-8.17V2.5zM199.835 20.5c.004-3.058-1.204-5.992-3.36-8.16-2.155-2.17-5.082-3.395-8.14-3.41h-5.66v2.345h5.675c2.415.029 4.72 1.016 6.408 2.744 1.688 1.728 2.62 4.056 2.592 6.471.064 1.22-.12 2.44-.543 3.587-.423 1.146-1.074 2.195-1.915 3.081-.841.887-1.854 1.593-2.976 2.075-1.123.482-2.332.731-3.553.731-1.222 0-2.431-.249-3.554-.731-1.122-.482-2.135-1.188-2.976-2.075-.841-.886-1.492-1.935-1.915-3.081-.423-1.146-.607-2.367-.543-3.587V0h-2.67v20.71c0 7.84 6.435 11.365 11 11.365h1.935c2.819-.354 5.411-1.726 7.289-3.858 1.877-2.131 2.911-4.876 2.906-7.717zM21.85 23.25c0 4.64-3.535 8.365-11.545 8.365-5.39 0-8.59-2.03-10.1-3.37L1.93 26.5c1.18 1 3.86 2.69 8.275 2.69 6.42 0 9.055-3.07 9.055-5.845s-2.645-5.065-8.8-6.225C6.11 16.305 0 14.58 0 8.5 0 2.765 5.185.135 10.5 0c4.655-.1 8 .97 10.05 2.395l-1.81 1.81c-2.189-1.144-4.626-1.73-7.095-1.705C5 2.5 2.59 5.785 2.59 8.425c0 2.64 2.35 4.95 9 6.335 6.65 1.385 10.26 3.85 10.26 8.49zM117.745 8.735C111 8.735 106.37 14 106.37 20.305c0 6.305 4.705 11.57 11.31 11.57 2.78.038 5.475-.952 7.57-2.78l-1.67-1.94c-1.597 1.497-3.701 2.334-5.89 2.345-4.19 0-8.045-3.37-8.69-7.885h20c.049-.435.072-.872.07-1.31.035-6.305-4.69-11.57-11.325-11.57zm0 2.36c4.61 0 8.375 3.735 8.795 8.35h-17.595c.162-2.238 1.154-4.336 2.782-5.88 1.628-1.545 3.774-2.426 6.018-2.47z"/>
        <path fill="url(#prefix__paint0_radial)" d="M195.35 37.27h-57.215c-2.568 0-4.65 2.082-4.65 4.65 0 2.568 2.082 4.65 4.65 4.65h57.215c2.568 0 4.65-2.082 4.65-4.65 0-2.568-2.082-4.65-4.65-4.65z"/>
        <path fill="url(#prefix__paint1_radial)" d="M43.42 46.57c2.568 0 4.65-2.082 4.65-4.65 0-2.568-2.082-4.65-4.65-4.65-2.568 0-4.65 2.082-4.65 4.65 0 2.568 2.082 4.65 4.65 4.65z"/>
        <path fill="url(#prefix__paint2_radial)" d="M62.365 46.57c2.568 0 4.65-2.082 4.65-4.65 0-2.568-2.082-4.65-4.65-4.65-2.568 0-4.65 2.082-4.65 4.65 0 2.568 2.082 4.65 4.65 4.65z"/>
        <path fill="url(#prefix__paint3_radial)" d="M81.305 46.57c2.568 0 4.65-2.082 4.65-4.65 0-2.568-2.082-4.65-4.65-4.65-2.568 0-4.65 2.082-4.65 4.65 0 2.568 2.082 4.65 4.65 4.65z"/>
        <path fill="url(#prefix__paint4_radial)" d="M100.25 46.57c2.568 0 4.65-2.082 4.65-4.65 0-2.568-2.082-4.65-4.65-4.65-2.568 0-4.65 2.082-4.65 4.65 0 2.568 2.082 4.65 4.65 4.65z"/>
        <path fill="url(#prefix__paint5_radial)" d="M119.19 46.57c2.568 0 4.65-2.082 4.65-4.65 0-2.568-2.082-4.65-4.65-4.65-2.568 0-4.65 2.082-4.65 4.65 0 2.568 2.082 4.65 4.65 4.65z"/>
        <path fill="#fff" d="M195.095 38.62h-.005c-1.82 0-3.295 1.475-3.295 3.295v.005c0 1.82 1.475 3.295 3.295 3.295h.005c1.82 0 3.295-1.475 3.295-3.295v-.005c0-1.82-1.475-3.295-3.295-3.295z"/>
    </g>
    <defs>
        <radialGradient id="prefix__paint0_radial" cx="0" cy="0" r="1" gradientTransform="translate(194.215 118.725) scale(263.63)" gradientUnits="userSpaceOnUse">
            <stop offset=".12" stop-color="#56C5FF"/>
            <stop offset=".17" stop-color="#57BEFF"/>
            <stop offset=".23" stop-color="#59ACFF"/>
            <stop offset=".3" stop-color="#5D8EFF"/>
            <stop offset=".32" stop-color="#5E85FF"/>
            <stop offset=".4" stop-color="#607CFF"/>
            <stop offset=".52" stop-color="#6463FF"/>
            <stop offset=".54" stop-color="#655EFF"/>
            <stop offset=".6" stop-color="#6653F7"/>
            <stop offset=".82" stop-color="#6932DE"/>
            <stop offset=".93" stop-color="#6A25D4"/>
        </radialGradient>
        <radialGradient id="prefix__paint1_radial" cx="0" cy="0" r="1" gradientTransform="translate(194.215 118.725) scale(263.63)" gradientUnits="userSpaceOnUse">
            <stop offset=".12" stop-color="#56C5FF"/>
            <stop offset=".17" stop-color="#57BEFF"/>
            <stop offset=".23" stop-color="#59ACFF"/>
            <stop offset=".3" stop-color="#5D8EFF"/>
            <stop offset=".32" stop-color="#5E85FF"/>
            <stop offset=".4" stop-color="#607CFF"/>
            <stop offset=".52" stop-color="#6463FF"/>
            <stop offset=".54" stop-color="#655EFF"/>
            <stop offset=".6" stop-color="#6653F7"/>
            <stop offset=".82" stop-color="#6932DE"/>
            <stop offset=".93" stop-color="#6A25D4"/>
        </radialGradient>
        <radialGradient id="prefix__paint2_radial" cx="0" cy="0" r="1" gradientTransform="translate(194.215 118.725) scale(263.63)" gradientUnits="userSpaceOnUse">
            <stop offset=".12" stop-color="#56C5FF"/>
            <stop offset=".17" stop-color="#57BEFF"/>
            <stop offset=".23" stop-color="#59ACFF"/>
            <stop offset=".3" stop-color="#5D8EFF"/>
            <stop offset=".32" stop-color="#5E85FF"/>
            <stop offset=".4" stop-color="#607CFF"/>
            <stop offset=".52" stop-color="#6463FF"/>
            <stop offset=".54" stop-color="#655EFF"/>
            <stop offset=".6" stop-color="#6653F7"/>
            <stop offset=".82" stop-color="#6932DE"/>
            <stop offset=".93" stop-color="#6A25D4"/>
        </radialGradient>
        <radialGradient id="prefix__paint3_radial" cx="0" cy="0" r="1" gradientTransform="translate(194.215 118.725) scale(263.63)" gradientUnits="userSpaceOnUse">
            <stop offset=".12" stop-color="#56C5FF"/>
            <stop offset=".17" stop-color="#57BEFF"/>
            <stop offset=".23" stop-color="#59ACFF"/>
            <stop offset=".3" stop-color="#5D8EFF"/>
            <stop offset=".32" stop-color="#5E85FF"/>
            <stop offset=".4" stop-color="#607CFF"/>
            <stop offset=".52" stop-color="#6463FF"/>
            <stop offset=".54" stop-color="#655EFF"/>
            <stop offset=".6" stop-color="#6653F7"/>
            <stop offset=".82" stop-color="#6932DE"/>
            <stop offset=".93" stop-color="#6A25D4"/>
        </radialGradient>
        <radialGradient id="prefix__paint4_radial" cx="0" cy="0" r="1" gradientTransform="translate(194.215 118.725) scale(263.63)" gradientUnits="userSpaceOnUse">
            <stop offset=".12" stop-color="#56C5FF"/>
            <stop offset=".17" stop-color="#57BEFF"/>
            <stop offset=".23" stop-color="#59ACFF"/>
            <stop offset=".3" stop-color="#5D8EFF"/>
            <stop offset=".32" stop-color="#5E85FF"/>
            <stop offset=".4" stop-color="#607CFF"/>
            <stop offset=".52" stop-color="#6463FF"/>
            <stop offset=".54" stop-color="#655EFF"/>
            <stop offset=".6" stop-color="#6653F7"/>
            <stop offset=".82" stop-color="#6932DE"/>
            <stop offset=".93" stop-color="#6A25D4"/>
        </radialGradient>
        <radialGradient id="prefix__paint5_radial" cx="0" cy="0" r="1" gradientTransform="translate(194.215 118.725) scale(263.63)" gradientUnits="userSpaceOnUse">
            <stop offset=".12" stop-color="#56C5FF"/>
            <stop offset=".17" stop-color="#57BEFF"/>
            <stop offset=".23" stop-color="#59ACFF"/>
            <stop offset=".3" stop-color="#5D8EFF"/>
            <stop offset=".32" stop-color="#5E85FF"/>
            <stop offset=".4" stop-color="#607CFF"/>
            <stop offset=".52" stop-color="#6463FF"/>
            <stop offset=".54" stop-color="#655EFF"/>
            <stop offset=".6" stop-color="#6653F7"/>
            <stop offset=".82" stop-color="#6932DE"/>
            <stop offset=".93" stop-color="#6A25D4"/>
        </radialGradient>
        <clipPath id="prefix__clip0">
            <path fill="#fff" d="M0 0H200V46.57H0z"/>
        </clipPath>
    </defs>
</svg>
